<svg xmlns="http://www.w3.org/2000/svg" viewBox="0 0 225 242" style="enable-background:new 0 0 225 242" xml:space="preserve"><style>.st0{display:none}.st2{fill:#fbf37c}</style><g id="Слой_1"><path class="st2" d="m116.5 15.6-32 64.8-71.4 10.3c-2.5.4-4.7 2.2-5.5 4.6-.8 2.4-.1 5.1 1.7 6.9L61 152.6l-12.2 71.2c-.4 2.5.6 5.1 2.7 6.6s4.8 1.7 7.1.5l63.9-33.6 24.6 13c.5-1.1 1.2-2.1 1.8-3.1-.4-1.5-.2-3.2.9-4.7s2.4-2.8 3.7-4l-28-14.7c-2-1-4.3-1-6.3 0l-54.9 28.9 10.5-61.2c.4-2.2-.4-4.4-1.9-6l-44.4-43.3 61.5-9c2.2-.3 4.1-1.7 5.1-3.7l27.5-55.7L150 89.5c1 2 2.9 3.4 5.1 3.7l36 5.2c.1-.8.2-1.6.4-2.5.4-2 2.2-3.3 4.1-3.6.6-2.2 1.3-4.5 2-6.6l-37.1-5.4-32-64.8c-.9-1.9-2.6-3.2-4.6-3.6H121c-1.9.5-3.6 1.8-4.5 3.7z"/><path class="st2" d="m209.3 53-79.9 178.5 9.2-.5 79.8-178.5z"/></g></svg>